<svg xmlns="http://www.w3.org/2000/svg" viewBox="0 0 24 24" width="24" height="24" aria-hidden="true">
  <g fill="currentColor">
    <path d="M8.5 4c-.7 0-1.3.3-1.7.8C6.4 5.3 6 6.1 6 7v2c0 .6-.2 1-.5 1.3-.3.3-.8.7-1.5.9v1.6c.7.2 1.2.6 1.5.9.3.3.5.7.5 1.3v2c0 .9.4 1.7.8 2.2.4.5 1 .8 1.7.8H10v-1.5H8.8c-.2 0-.4-.1-.5-.3-.1-.2-.3-.6-.3-1.2V15c0-.9-.3-1.6-.8-2.1-.3-.3-.7-.6-1.2-.8.5-.2.9-.5 1.2-.8.5-.5.8-1.2.8-2.1V7c0-.6.2-1 .3-1.2.1-.2.3-.3.5-.3H10V4H8.5zM15.5 20c.7 0 1.3-.3 1.7-.8.4-.5.8-1.3.8-2.2v-2c0-.6.2-1 .5-1.3.3-.3.8-.7 1.5-.9v-1.6c-.7-.2-1.2-.6-1.5-.9-.3-.3-.5-.7-.5-1.3V7c0-.9-.4-1.7-.8-2.2-.4-.5-1-.8-1.7-.8H14v1.5h1.2c.2 0 .4.1.5.3.1.2.3.6.3 1.2v2c0 .9.3 1.6.8 2.1.3.3.7.6 1.2.8-.5.2-.9.5-1.2.8-.5.5-.8 1.2-.8 2.1v2c0 .6-.2 1-.3 1.2-.1.2-.3.3-.5.3H14V20h1.5z"/>
  </g>
</svg>

